<svg width="1200" height="800" viewBox="0 0 1200 800" fill="none" xmlns="http://www.w3.org/2000/svg">
  <!-- Background gradient -->
  <rect width="1200" height="800" fill="url(#heroGrad)"/>
  
  <!-- Large decorative elements -->
  <circle cx="150" cy="150" r="80" fill="#f472b6" opacity="0.1"/>
  <circle cx="1050" cy="650" r="100" fill="#ec4899" opacity="0.08"/>
  <circle cx="900" cy="100" r="60" fill="#f472b6" opacity="0.12"/>
  <circle cx="200" cy="600" r="70" fill="#ec4899" opacity="0.1"/>
  
  <!-- Floating nail elements -->
  <ellipse cx="300" cy="200" rx="8" ry="20" fill="#fdf2f8" stroke="#ec4899" stroke-width="1" opacity="0.6"/>
  <ellipse cx="800" cy="150" rx="10" ry="25" fill="#fdf2f8" stroke="#f472b6" stroke-width="1" opacity="0.5"/>
  <ellipse cx="1000" cy="300" rx="8" ry="20" fill="#fdf2f8" stroke="#ec4899" stroke-width="1" opacity="0.4"/>
  <ellipse cx="200" cy="400" rx="9" ry="22" fill="#fdf2f8" stroke="#f472b6" stroke-width="1" opacity="0.6"/>
  <ellipse cx="700" cy="600" rx="8" ry="20" fill="#fdf2f8" stroke="#ec4899" stroke-width="1" opacity="0.5"/>
  
  <!-- Sparkle elements -->
  <g opacity="0.3">
    <circle cx="400" cy="120" r="4" fill="#fbbf24"/>
    <circle cx="600" cy="180" r="3" fill="#fbbf24"/>
    <circle cx="950" cy="250" r="5" fill="#fbbf24"/>
    <circle cx="150" cy="350" r="3" fill="#fbbf24"/>
    <circle cx="850" cy="450" r="4" fill="#fbbf24"/>
    <circle cx="350" cy="550" r="3" fill="#fbbf24"/>
    <circle cx="1100" cy="500" r="4" fill="#fbbf24"/>
  </g>
  
  <!-- Heart shapes -->
  <g opacity="0.2">
    <path d="M500 300c-6-12 4-24 16-16 12-8 22 4 16 16-4 8-16 24-16 24s-12-16-16-24z" fill="#f472b6"/>
    <path d="M800 500c-4-8 2-16 10-10 8-6 14 2 10 10-2 6-10 16-10 16s-8-10-10-16z" fill="#ec4899"/>
    <path d="M250 450c-5-10 3-20 13-13 10-7 18 3 13 13-3 7-13 20-13 20s-10-13-13-20z" fill="#f472b6"/>
  </g>
  
  <!-- Abstract curves -->
  <path d="M0 600c200-50 400-100 600-50s400 100 600 50v200H0v-200z" fill="#fce7f3" opacity="0.3"/>
  <path d="M0 700c150-30 300-60 450-30s300 60 450 30 300-60 300-60v130H0v-70z" fill="#fbcfe8" opacity="0.2"/>
  
  <defs>
    <linearGradient id="heroGrad" x1="0%" y1="0%" x2="100%" y2="100%">
      <stop offset="0%" style="stop-color:#fef7ff"/>
      <stop offset="25%" style="stop-color:#fdf2f8"/>
      <stop offset="50%" style="stop-color:#fce7f3"/>
      <stop offset="75%" style="stop-color:#fbcfe8"/>
      <stop offset="100%" style="stop-color:#f9a8d4"/>
    </linearGradient>
  </defs>
</svg>