<svg width="200" height="200" viewBox="0 0 200 200" fill="none" xmlns="http://www.w3.org/2000/svg">
  <!-- Background -->
  <rect width="200" height="200" fill="url(#grad5)" rx="20"/>
  
  <!-- French manicure nails -->
  <ellipse cx="70" cy="120" rx="12" ry="25" fill="#fdf2f8" stroke="#ec4899" stroke-width="1.5"/>
  <ellipse cx="100" cy="115" rx="14" ry="28" fill="#fdf2f8" stroke="#ec4899" stroke-width="1.5"/>
  <ellipse cx="130" cy="120" rx="12" ry="25" fill="#fdf2f8" stroke="#ec4899" stroke-width="1.5"/>
  
  <!-- French tips -->
  <path d="M60 105c8-3 16-3 20 0v-8c-4-3-12-3-20 0v8z" fill="#ffffff"/>
  <path d="M88 100c10-3 18-3 24 0v-10c-6-3-14-3-24 0v10z" fill="#ffffff"/>
  <path d="M120 105c8-3 16-3 20 0v-8c-4-3-12-3-20 0v8z" fill="#ffffff"/>
  
  <!-- Nail file -->
  <rect x="40" y="60" width="6" height="40" fill="#d1d5db" rx="3"/>
  <rect x="38" y="55" width="10" height="8" fill="#6b7280" rx="2"/>
  
  <!-- Cuticle pusher -->
  <line x1="160" y1="70" x2="160" y2="100" stroke="#64748b" stroke-width="3" stroke-linecap="round"/>
  <circle cx="160" cy="65" r="4" fill="#ec4899"/>
  
  <!-- Decorative elements -->
  <circle cx="50" cy="150" r="3" fill="#f472b6" opacity="0.7"/>
  <circle cx="150" cy="160" r="2" fill="#fbbf24" opacity="0.8"/>
  
  <defs>
    <linearGradient id="grad5" x1="0%" y1="0%" x2="100%" y2="100%">
      <stop offset="0%" style="stop-color:#fff7ed"/>
      <stop offset="100%" style="stop-color:#fed7aa"/>
    </linearGradient>
  </defs>
</svg>