<svg width="200" height="250" viewBox="0 0 200 250" fill="none" xmlns="http://www.w3.org/2000/svg">
  <!-- Background -->
  <rect width="200" height="250" fill="url(#grad1)" rx="15"/>
  
  <!-- Nail shape -->
  <ellipse cx="100" cy="180" rx="35" ry="55" fill="#fdf2f8" stroke="#ec4899" stroke-width="2"/>
  
  <!-- French tip -->
  <path d="M75 140c20-8 40-8 50 0v-15c-10-8-30-8-50 0v15z" fill="#ffffff"/>
  
  <!-- Nail art design -->
  <circle cx="90" cy="170" r="4" fill="#f472b6"/>
  <circle cx="110" cy="165" r="3" fill="#ec4899"/>
  <circle cx="100" cy="185" r="2" fill="#f472b6"/>
  
  <!-- Decorative elements -->
  <path d="M85 155l5 3-5 3 5-3-5-3z" fill="#ec4899"/>
  <path d="M115 175l3 2-3 2 3-2-3-2z" fill="#f472b6"/>
  
  <!-- Tools -->
  <rect x="40" y="50" width="4" height="40" fill="#64748b" rx="2"/>
  <circle cx="42" cy="45" r="6" fill="#ec4899"/>
  
  <rect x="160" y="60" width="3" height="35" fill="#64748b" rx="1.5"/>
  <rect x="158" y="55" width="7" height="8" fill="#f472b6" rx="2"/>
  
  <defs>
    <linearGradient id="grad1" x1="0%" y1="0%" x2="100%" y2="100%">
      <stop offset="0%" style="stop-color:#fdf2f8"/>
      <stop offset="100%" style="stop-color:#fce7f3"/>
    </linearGradient>
  </defs>
</svg>