<svg width="200" height="200" viewBox="0 0 200 200" fill="none" xmlns="http://www.w3.org/2000/svg">
  <!-- Background -->
  <rect width="200" height="200" fill="url(#grad4)" rx="20"/>
  
  <!-- Gel nail bottle -->
  <rect x="80" y="60" width="40" height="80" fill="#ec4899" rx="8"/>
  <rect x="85" y="55" width="30" height="12" fill="#64748b" rx="6"/>
  <rect x="75" y="45" width="50" height="15" fill="#f472b6" rx="7"/>
  
  <!-- Brush stroke -->
  <path d="M50 120c20-10 40-5 50 10 8 12 5 25-5 30-15 8-35-5-40-20-3-10 0-18 10-20z" fill="#f472b6" opacity="0.6"/>
  
  <!-- Sparkles around bottle -->
  <circle cx="60" cy="80" r="2" fill="#fbbf24"/>
  <circle cx="140" cy="90" r="1.5" fill="#fbbf24"/>
  <circle cx="50" cy="140" r="2.5" fill="#fbbf24"/>
  <circle cx="150" cy="130" r="2" fill="#fbbf24"/>
  
  <!-- Abstract nail shapes -->
  <ellipse cx="150" cy="160" rx="8" ry="15" fill="#fdf2f8" stroke="#ec4899" stroke-width="1"/>
  <ellipse cx="140" cy="170" rx="6" ry="12" fill="#fdf2f8" stroke="#f472b6" stroke-width="1"/>
  
  <defs>
    <linearGradient id="grad4" x1="0%" y1="0%" x2="100%" y2="100%">
      <stop offset="0%" style="stop-color:#fef7ff"/>
      <stop offset="100%" style="stop-color:#fdf2f8"/>
    </linearGradient>
  </defs>
</svg>