<svg width="400" height="300" viewBox="0 0 400 300" fill="none" xmlns="http://www.w3.org/2000/svg">
  <!-- Background -->
  <rect width="400" height="300" fill="url(#gradient1)"/>
  
  <!-- Hand silhouette -->
  <path d="M150 80c-5 0-10 3-12 8l-15 45c-2 6 1 12 7 14s12-1 14-7l8-24 5 35c1 6 6 10 12 9s10-6 9-12l-8-55 3 20c1 5 5 8 10 7s8-5 7-10l-5-30 2 15c0 4 3 7 7 6s7-3 6-7l-3-20c-2-10-8-18-18-20-15-3-30 15-23 32z" fill="#ec4899" opacity="0.8"/>
  
  <!-- Nails -->
  <ellipse cx="165" cy="75" rx="4" ry="8" fill="#f8fafc" stroke="#ec4899" stroke-width="1"/>
  <ellipse cx="175" cy="70" rx="4" ry="9" fill="#f8fafc" stroke="#ec4899" stroke-width="1"/>
  <ellipse cx="185" cy="72" rx="4" ry="8" fill="#f8fafc" stroke="#ec4899" stroke-width="1"/>
  <ellipse cx="192" cy="78" rx="3" ry="7" fill="#f8fafc" stroke="#ec4899" stroke-width="1"/>
  <ellipse cx="196" cy="85" rx="3" ry="6" fill="#f8fafc" stroke="#ec4899" stroke-width="1"/>
  
  <!-- Polish brush -->
  <rect x="250" y="120" width="8" height="60" fill="#4f46e5" rx="4"/>
  <rect x="248" y="115" width="12" height="8" fill="#64748b" rx="2"/>
  <path d="M245 180l18-5-3 15-15-10z" fill="#ec4899"/>
  
  <!-- Sparkles -->
  <circle cx="120" cy="60" r="3" fill="#f472b6" opacity="0.6"/>
  <circle cx="280" cy="80" r="2" fill="#f472b6" opacity="0.8"/>
  <circle cx="320" cy="140" r="2.5" fill="#f472b6" opacity="0.7"/>
  <circle cx="100" cy="180" r="2" fill="#f472b6" opacity="0.6"/>
  
  <!-- Heart shapes -->
  <path d="M80 120c-3-6 2-12 8-8 6-4 11 2 8 8-2 4-8 12-8 12s-6-8-8-12z" fill="#f472b6" opacity="0.5"/>
  <path d="M300 200c-2-4 1-8 5-5 4-3 7 1 5 5-1 3-5 8-5 8s-4-5-5-8z" fill="#f472b6" opacity="0.6"/>
  
  <defs>
    <linearGradient id="gradient1" x1="0%" y1="0%" x2="100%" y2="100%">
      <stop offset="0%" style="stop-color:#fdf2f8"/>
      <stop offset="50%" style="stop-color:#fce7f3"/>
      <stop offset="100%" style="stop-color:#fbcfe8"/>
    </linearGradient>
  </defs>
</svg>