<svg width="300" height="200" viewBox="0 0 300 200" fill="none" xmlns="http://www.w3.org/2000/svg">
  <!-- Background -->
  <rect width="300" height="200" fill="url(#grad3)" rx="20"/>
  
  <!-- Foot spa bowl -->
  <ellipse cx="150" cy="140" rx="80" ry="40" fill="#e0f2fe" stroke="#0ea5e9" stroke-width="2"/>
  <ellipse cx="150" cy="130" rx="75" ry="35" fill="#f0f9ff"/>
  
  <!-- Water bubbles -->
  <circle cx="120" cy="135" r="3" fill="#0ea5e9" opacity="0.4"/>
  <circle cx="180" cy="130" r="2.5" fill="#0ea5e9" opacity="0.5"/>
  <circle cx="140" cy="145" r="2" fill="#0ea5e9" opacity="0.6"/>
  <circle cx="165" cy="140" r="2.5" fill="#0ea5e9" opacity="0.4"/>
  <circle cx="155" cy="125" r="1.5" fill="#0ea5e9" opacity="0.7"/>
  
  <!-- Foot silhouette -->
  <path d="M130 110c10-5 25-3 30 5 3 5 2 12-2 16-5 4-12 6-18 4-8-2-15-10-12-18 2-4 6-6 12-7z" fill="#fdf2f8" stroke="#ec4899" stroke-width="1.5"/>
  
  <!-- Toenails -->
  <ellipse cx="135" cy="108" rx="2" ry="3" fill="#f8fafc" stroke="#ec4899" stroke-width="0.8"/>
  <ellipse cx="142" cy="106" rx="2.5" ry="4" fill="#f8fafc" stroke="#ec4899" stroke-width="0.8"/>
  <ellipse cx="149" cy="107" rx="2" ry="3.5" fill="#f8fafc" stroke="#ec4899" stroke-width="0.8"/>
  <ellipse cx="155" cy="109" rx="1.8" ry="3" fill="#f8fafc" stroke="#ec4899" stroke-width="0.8"/>
  <ellipse cx="160" cy="111" rx="1.5" ry="2.5" fill="#f8fafc" stroke="#ec4899" stroke-width="0.8"/>
  
  <!-- Spa accessories -->
  <rect x="50" y="60" width="8" height="15" fill="#8b5cf6" rx="4"/>
  <rect x="45" y="55" width="18" height="8" fill="#a78bfa" rx="4"/>
  
  <circle cx="250" cy="70" r="12" fill="#f472b6" opacity="0.6"/>
  <circle cx="250" cy="70" r="8" fill="#fdf2f8"/>
  <path d="M245 65l10 5-10 5v-10z" fill="#ec4899"/>
  
  <!-- Flowers -->
  <circle cx="80" cy="40" r="6" fill="#f472b6" opacity="0.7"/>
  <circle cx="75" cy="35" r="4" fill="#fbbf24" opacity="0.8"/>
  <circle cx="85" cy="35" r="4" fill="#fbbf24" opacity="0.8"/>
  <circle cx="75" cy="45" r="4" fill="#fbbf24" opacity="0.8"/>
  <circle cx="85" cy="45" r="4" fill="#fbbf24" opacity="0.8"/>
  
  <defs>
    <linearGradient id="grad3" x1="0%" y1="0%" x2="100%" y2="100%">
      <stop offset="0%" style="stop-color:#fefcff"/>
      <stop offset="50%" style="stop-color:#fdf2f8"/>
      <stop offset="100%" style="stop-color:#ecfdf5"/>
    </linearGradient>
  </defs>
</svg>